<?xml version="1.0" encoding="UTF-8" standalone="no"?>
<!DOCTYPE svg PUBLIC "-//W3C//DTD SVG 1.1//EN" "http://www.w3.org/Graphics/SVG/1.1/DTD/svg11.dtd">
<svg width="100%" height="100%" viewBox="0 0 120 120" version="1.1" xmlns="http://www.w3.org/2000/svg" xmlns:xlink="http://www.w3.org/1999/xlink" xml:space="preserve" xmlns:serif="http://www.serif.com/" style="fill-rule:evenodd;clip-rule:evenodd;stroke-linejoin:round;stroke-miterlimit:2;">
    <g transform="matrix(1.51479,0,0,1.51479,9.25438,-29.4351)">
        <path d="M25,24L15.961,24C13.775,24 12,25.775 12,27.961L12,93.039C12,95.225 13.775,97 15.961,97L25,97L25,24Z" style="fill:rgb(101,101,101);"/>
    </g>
    <g transform="matrix(1.51479,0,0,1.51479,31.9763,-29.4351)">
        <rect x="12" y="24" width="13" height="73" style="fill:rgb(101,101,101);"/>
    </g>
    <g transform="matrix(1.51479,0,0,1.51479,54.6982,-29.4351)">
        <path d="M25,27.961C25,25.775 23.225,24 21.039,24L12,24L12,97L19.059,97C22.338,97 25,94.338 25,91.059L25,27.961Z" style="fill:rgb(101,101,101);"/>
    </g>
    <g transform="matrix(1.51479,0,0,1.51479,9.25438,-31.7151)">
        <path d="M25,24L15.961,24C13.775,24 12,25.775 12,27.961L12,93.039C12,95.225 13.775,97 15.961,97L25,97L25,24Z" style="fill:rgb(204,204,204);"/>
    </g>
    <g transform="matrix(1.51479,0,0,1.51479,31.9763,-31.7151)">
        <rect x="12" y="24" width="13" height="73" style="fill:rgb(204,204,204);"/>
    </g>
    <g transform="matrix(1.51479,0,0,1.51479,54.6982,-31.7151)">
        <path d="M25,27.961C25,25.775 23.225,24 21.039,24L12,24L12,97L19.059,97C22.338,97 25,94.338 25,91.059L25,27.961Z" style="fill:rgb(204,204,204);"/>
    </g>
    <g transform="matrix(1.07633,0,0,0.897945,51.2536,-18.0507)">
        <path d="M25,24L12,24L12,93.104L15.25,97L21.75,97L25,93.104L25,24Z" style="fill:rgb(29,29,29);"/>
    </g>
    <g transform="matrix(1.07633,0,0,0.897945,29.1017,-18.0507)">
        <path d="M25,24L12,24L12,93.104L15.25,97L21.75,97L25,93.104L25,24Z" style="fill:rgb(29,29,29);"/>
    </g>
    <g transform="matrix(1.14,0,0,1.14,-8.4,-8.47)">
        <path d="M75.863,65L63.726,65L66.726,68L72.863,68L75.863,65ZM56.432,65L44.295,65L47.295,68L53.432,68L56.432,65Z" style="fill:rgb(39,39,39);"/>
    </g>
</svg>
