<?xml version="1.0" encoding="UTF-8" standalone="no"?>
<!DOCTYPE svg PUBLIC "-//W3C//DTD SVG 1.1//EN" "http://www.w3.org/Graphics/SVG/1.1/DTD/svg11.dtd">
<svg width="100%" height="100%" viewBox="0 0 120 120" version="1.1" xmlns="http://www.w3.org/2000/svg" xmlns:xlink="http://www.w3.org/1999/xlink" xml:space="preserve" xmlns:serif="http://www.serif.com/" style="fill-rule:evenodd;clip-rule:evenodd;stroke-linejoin:round;stroke-miterlimit:2;">
    <g transform="matrix(1,0,0,1,-0.397059,0)">
        <g transform="matrix(1,0,0,1,-2,-3)">
            <rect x="55" y="112" width="3.794" height="1" style="fill:rgb(142,142,142);"/>
        </g>
        <g transform="matrix(1,0,0,1,-2,-9)">
            <rect x="55" y="112" width="3.794" height="1" style="fill:rgb(142,142,142);"/>
        </g>
        <g transform="matrix(1,0,0,1,-2,-15)">
            <rect x="55" y="112" width="3.794" height="1" style="fill:rgb(142,142,142);"/>
        </g>
        <g transform="matrix(1,0,0,1,-2,-21)">
            <rect x="55" y="112" width="3.794" height="1" style="fill:rgb(142,142,142);"/>
        </g>
        <g transform="matrix(1,0,0,1,-2,-27)">
            <rect x="55" y="112" width="3.794" height="1" style="fill:rgb(142,142,142);"/>
        </g>
        <g transform="matrix(1,0,0,1,-2,-33)">
            <rect x="55" y="112" width="3.794" height="1" style="fill:rgb(142,142,142);"/>
        </g>
        <g transform="matrix(1,0,0,1,-2,-39)">
            <rect x="55" y="112" width="3.794" height="1" style="fill:rgb(142,142,142);"/>
        </g>
        <g transform="matrix(1,0,0,1,-2,-45)">
            <rect x="55" y="112" width="3.794" height="1" style="fill:rgb(142,142,142);"/>
        </g>
        <g transform="matrix(1,0,0,1,-2,-51)">
            <rect x="55" y="112" width="3.794" height="1" style="fill:rgb(142,142,142);"/>
        </g>
        <g transform="matrix(1,0,0,1,-2,-57)">
            <rect x="55" y="112" width="3.794" height="1" style="fill:rgb(142,142,142);"/>
        </g>
        <g transform="matrix(1,0,0,1,-2,-63)">
            <rect x="55" y="112" width="3.794" height="1" style="fill:rgb(142,142,142);"/>
        </g>
        <g transform="matrix(1,0,0,1,-2,-69)">
            <rect x="55" y="112" width="3.794" height="1" style="fill:rgb(142,142,142);"/>
        </g>
        <g transform="matrix(1,0,0,1,-2,-75)">
            <rect x="55" y="112" width="3.794" height="1" style="fill:rgb(142,142,142);"/>
        </g>
        <g transform="matrix(1,0,0,1,-2,-81)">
            <rect x="55" y="112" width="3.794" height="1" style="fill:rgb(142,142,142);"/>
        </g>
        <g transform="matrix(1,0,0,1,-2,-87)">
            <rect x="55" y="112" width="3.794" height="1" style="fill:rgb(142,142,142);"/>
        </g>
        <g transform="matrix(1,0,0,1,-2,-93)">
            <rect x="55" y="112" width="3.794" height="1" style="fill:rgb(142,142,142);"/>
        </g>
        <g transform="matrix(1,0,0,1,-2,-99)">
            <rect x="55" y="112" width="3.794" height="1" style="fill:rgb(142,142,142);"/>
        </g>
        <g transform="matrix(1,0,0,1,-2,-105)">
            <rect x="55" y="112" width="3.794" height="1" style="fill:rgb(142,142,142);"/>
        </g>
    </g>
    <g transform="matrix(1,0,0,1,10.6029,0)">
        <g transform="matrix(1,0,0,1,-2,-3)">
            <rect x="55" y="112" width="3.794" height="1" style="fill:rgb(142,142,142);"/>
        </g>
        <g transform="matrix(1,0,0,1,-2,-9)">
            <rect x="55" y="112" width="3.794" height="1" style="fill:rgb(142,142,142);"/>
        </g>
        <g transform="matrix(1,0,0,1,-2,-15)">
            <rect x="55" y="112" width="3.794" height="1" style="fill:rgb(142,142,142);"/>
        </g>
        <g transform="matrix(1,0,0,1,-2,-21)">
            <rect x="55" y="112" width="3.794" height="1" style="fill:rgb(142,142,142);"/>
        </g>
        <g transform="matrix(1,0,0,1,-2,-27)">
            <rect x="55" y="112" width="3.794" height="1" style="fill:rgb(142,142,142);"/>
        </g>
        <g transform="matrix(1,0,0,1,-2,-33)">
            <rect x="55" y="112" width="3.794" height="1" style="fill:rgb(142,142,142);"/>
        </g>
        <g transform="matrix(1,0,0,1,-2,-39)">
            <rect x="55" y="112" width="3.794" height="1" style="fill:rgb(142,142,142);"/>
        </g>
        <g transform="matrix(1,0,0,1,-2,-45)">
            <rect x="55" y="112" width="3.794" height="1" style="fill:rgb(142,142,142);"/>
        </g>
        <g transform="matrix(1,0,0,1,-2,-51)">
            <rect x="55" y="112" width="3.794" height="1" style="fill:rgb(142,142,142);"/>
        </g>
        <g transform="matrix(1,0,0,1,-2,-57)">
            <rect x="55" y="112" width="3.794" height="1" style="fill:rgb(142,142,142);"/>
        </g>
        <g transform="matrix(1,0,0,1,-2,-63)">
            <rect x="55" y="112" width="3.794" height="1" style="fill:rgb(142,142,142);"/>
        </g>
        <g transform="matrix(1,0,0,1,-2,-69)">
            <rect x="55" y="112" width="3.794" height="1" style="fill:rgb(142,142,142);"/>
        </g>
        <g transform="matrix(1,0,0,1,-2,-75)">
            <rect x="55" y="112" width="3.794" height="1" style="fill:rgb(142,142,142);"/>
        </g>
        <g transform="matrix(1,0,0,1,-2,-81)">
            <rect x="55" y="112" width="3.794" height="1" style="fill:rgb(142,142,142);"/>
        </g>
        <g transform="matrix(1,0,0,1,-2,-87)">
            <rect x="55" y="112" width="3.794" height="1" style="fill:rgb(142,142,142);"/>
        </g>
        <g transform="matrix(1,0,0,1,-2,-93)">
            <rect x="55" y="112" width="3.794" height="1" style="fill:rgb(142,142,142);"/>
        </g>
        <g transform="matrix(1,0,0,1,-2,-99)">
            <rect x="55" y="112" width="3.794" height="1" style="fill:rgb(142,142,142);"/>
        </g>
        <g transform="matrix(1,0,0,1,-2,-105)">
            <rect x="55" y="112" width="3.794" height="1" style="fill:rgb(142,142,142);"/>
        </g>
    </g>
    <g transform="matrix(0.160784,0,0,1,54.7745,-0.5)">
        <rect x="25" y="6" width="15" height="109" style="fill:rgb(14,14,14);"/>
    </g>
    <g transform="matrix(0.832896,0,0,0.913745,10.0262,9.1708)">
        <path d="M50.219,108.648C50.219,105.722 48.88,97.541 48.88,90.3C48.88,82.593 50.219,74.805 50.219,71.541L69.781,71.541C69.781,74.805 71.12,82.593 71.12,90.3C71.12,97.541 69.781,105.722 69.781,108.648L50.219,108.648Z" style="fill:rgb(88,83,80);"/>
    </g>
    <g transform="matrix(0.832896,0,0,0.832896,10.0262,14.9548)">
        <path d="M51.42,107.447C51.42,104.616 48.88,97.541 48.88,90.3C48.88,82.593 51.42,74.699 51.42,71.541L68.58,71.541C68.58,74.699 71.12,82.593 71.12,90.3C71.12,97.541 68.58,104.616 68.58,107.447L51.42,107.447Z" style="fill:url(#_Linear1);"/>
    </g>
    <g transform="matrix(0.832896,0,0,0.832896,10.0262,14.9548)">
        <path d="M71.164,87.494C71.136,88.426 71.12,89.365 71.12,90.3C71.12,90.699 71.124,91.098 71.13,91.494L48.87,91.494C48.876,91.098 48.88,90.699 48.88,90.3C48.88,89.365 48.864,88.426 48.836,87.494L71.164,87.494Z" style="fill:rgb(129,57,0);"/>
    </g>
    <defs>
        <linearGradient id="_Linear1" x1="0" y1="0" x2="1" y2="0" gradientUnits="userSpaceOnUse" gradientTransform="matrix(9.18485e-16,15,-15,9.18485e-16,60,82)"><stop offset="0" style="stop-color:rgb(112,112,112);stop-opacity:1"/><stop offset="1" style="stop-color:rgb(166,166,166);stop-opacity:1"/></linearGradient>
    </defs>
</svg>
